<?xml version="1.0" encoding="UTF-8" standalone="no"?>
<svg
   xmlns:dc="http://purl.org/dc/elements/1.1/"
   xmlns:cc="http://creativecommons.org/ns#"
   xmlns:rdf="http://www.w3.org/1999/02/22-rdf-syntax-ns#"
   xmlns:svg="http://www.w3.org/2000/svg"
   xmlns="http://www.w3.org/2000/svg"
   version="1.1"
   id="svg5530"
   viewBox="0 0 900.00001 200"
   height="200"
   width="900">
  <defs
     id="defs5532">
    <clipPath
       id="clipPath764"
       clipPathUnits="userSpaceOnUse">
      <path
         id="path766"
         d="m 0,0 436.535,0 0,612.284 L 0,612.284 0,0 Z" />
    </clipPath>
  </defs>
  <metadata
     id="metadata5535">
    <rdf:RDF>
      <cc:Work
         rdf:about="">
        <dc:format>image/svg+xml</dc:format>
        <dc:type
           rdf:resource="http://purl.org/dc/dcmitype/StillImage" />
        <dc:title></dc:title>
      </cc:Work>
    </rdf:RDF>
  </metadata>
  <g
     transform="translate(0,-852.36213)"
     id="layer1">
    <g
       transform="matrix(0.21971045,0,0,-0.21971045,574.28605,1214.8313)"
       id="g1054">
      <path
         id="path1056"
         style="fill:#211d1d;fill-opacity:1;fill-rule:nonzero;stroke:none"
         d="m 0,0 -165.818,0 0,11.735 153.599,0 0,262.212 -153.599,0 0,12.69 L 0,286.637 0,0 Z m -417.777,286.637 164.903,0 0,-12.69 -153.6,0 0,-262.212 153.6,0 0,-11.735 -164.903,0 0,286.637 z m 192.994,-263.698 -170.508,0 0,239.818 170.508,0 0,-239.818 z m 19.669,251.008 0,-262.212 28.102,0 0,-11.735 -64.679,0 0,11.735 28.113,0 0,262.212 -28.113,0 0,12.69 64.679,0 0,-12.69 -28.102,0 z m 11.193,-11.189 170.519,0 0,-239.818 -170.519,0 0,239.818 z m -235.04,-273.962 440.163,0 0,309.031 -440.163,0 0,-309.031 z" />
    </g>
    <path
       id="path1058"
       style="fill:#211d1d;fill-opacity:1;fill-rule:nonzero;stroke:none"
       d="m 519.58785,1178.3118 -8.28484,0 0,-1.7044 8.28484,0 0,1.7044 z m 2.21753,-3.9219 -12.71552,0 0,6.135 12.71552,0 0,-6.135 z" />
    <path
       id="path1060"
       style="fill:#211d1d;fill-opacity:1;fill-rule:nonzero;stroke:none"
       d="m 519.58785,1190.6298 -8.28484,0 0,-1.7067 8.28484,0 0,1.7067 z m 2.21753,-3.9198 -12.71552,0 0,6.1327 12.71552,0 0,-6.1327 z" />
    <g
       transform="matrix(0.21971045,0,0,-0.21971045,542.64429,1172.5916)"
       id="g1062">
      <path
         id="path1064"
         style="fill:#211d1d;fill-opacity:1;fill-rule:nonzero;stroke:none"
         d="m 0,0 0,-11.496 c -2.553,1.809 -5.479,3.135 -8.658,3.832 L -8.658,0 0,0 Z m -27.4,-97.166 0,5.779 c 0,7.557 6.144,13.706 13.712,13.706 C -6.142,-77.681 0,-83.83 0,-91.387 l 0,-5.779 -27.4,0 z m 8.67,78.976 0,-30.399 10.072,0 0,30.399 C -3.588,-20.199 0,-25.128 0,-30.891 l 0,-41.091 c -3.869,2.76 -8.601,4.388 -13.688,4.388 -5.111,0 -9.831,-1.628 -13.712,-4.388 l 0,41.091 c 0,5.763 3.61,10.692 8.67,12.701 m 0,18.19 0,-7.664 c -3.169,-0.697 -6.105,-2.023 -8.67,-3.832 l 0,11.496 8.67,0 z m 10.072,34.1 -10.072,0 0,-24.025 -18.743,0 0,-117.316 47.557,0 0,117.316 -18.742,0 0,24.025 z" />
    </g>
    <path
       id="path1206"
       style="fill:#211d1d;fill-opacity:1;fill-rule:nonzero;stroke:none"
       d="m 376.6763,1181.7621 -2.45964,0 0,4.6466 2.45964,0 0,-4.6466 z" />
    <path
       id="path1208"
       style="fill:#211d1d;fill-opacity:1;fill-rule:nonzero;stroke:none"
       d="m 376.6763,1191.0567 -2.45964,0 0,4.6482 2.45964,0 0,-4.6482 z" />
    <path
       id="path1210"
       style="fill:#211d1d;fill-opacity:1;fill-rule:nonzero;stroke:none"
       d="m 376.6763,1172.4648 -2.45964,0 0,4.648 2.45964,0 0,-4.648 z" />
    <path
       id="path1212"
       style="fill:#211d1d;fill-opacity:1;fill-rule:nonzero;stroke:none"
       d="m 376.6763,1163.1682 -2.45964,0 0,4.6486 2.45964,0 0,-4.6486 z" />
    <path
       id="path1214"
       style="fill:#211d1d;fill-opacity:1;fill-rule:nonzero;stroke:none"
       d="m 376.6763,1153.871 -2.45964,0 0,4.6479 2.45964,0 0,-4.6479 z" />
    <path
       id="path1216"
       style="fill:#211d1d;fill-opacity:1;fill-rule:nonzero;stroke:none"
       d="m 376.6763,1200.356 -2.45964,0 0,4.647 2.45964,0 0,-4.647 z" />
    <path
       id="path1218"
       style="fill:#211d1d;fill-opacity:1;fill-rule:nonzero;stroke:none"
       d="m 417.56378,1171.5651 -32.89463,0 0,2.4577 32.89463,0 0,-2.4577 z" />
    <path
       id="path1220"
       style="fill:#211d1d;fill-opacity:1;fill-rule:nonzero;stroke:none"
       d="m 417.56378,1178.8602 -32.89463,0 0,2.4605 32.89463,0 0,-2.4605 z" />
    <path
       id="path1222"
       style="fill:#211d1d;fill-opacity:1;fill-rule:nonzero;stroke:none"
       d="m 417.56378,1164.2672 -32.89463,0 0,2.4559 32.89463,0 0,-2.4559 z" />
    <path
       id="path1224"
       style="fill:#211d1d;fill-opacity:1;fill-rule:nonzero;stroke:none"
       d="m 417.56378,1156.9678 -32.89463,0 0,2.4605 32.89463,0 0,-2.4605 z" />
    <path
       id="path1226"
       style="fill:#211d1d;fill-opacity:1;fill-rule:nonzero;stroke:none"
       d="m 417.56378,1193.4608 -32.89463,0 0,2.4573 32.89463,0 0,-2.4573 z" />
    <path
       id="path1228"
       style="fill:#211d1d;fill-opacity:1;fill-rule:nonzero;stroke:none"
       d="m 411.29324,1200.7556 -26.62409,0 0,2.4605 26.62407,0 0,-2.4605 z" />
    <path
       id="path1230"
       style="fill:#211d1d;fill-opacity:1;fill-rule:nonzero;stroke:none"
       d="m 417.56378,1186.1625 -32.89463,0 0,2.4578 32.89463,0 0,-2.4578 z" />
    <path
       id="path1232"
       style="fill:#211d1d;fill-opacity:1;fill-rule:nonzero;stroke:none"
       d="m 332.96206,1188.6203 32.90121,0 0,-2.4578 -32.90121,0 0,2.4578 z" />
    <path
       id="path1234"
       style="fill:#211d1d;fill-opacity:1;fill-rule:nonzero;stroke:none"
       d="m 332.96206,1181.3207 32.90121,0 0,-2.4573 -32.90121,0 0,2.4573 z" />
    <path
       id="path1236"
       style="fill:#211d1d;fill-opacity:1;fill-rule:nonzero;stroke:none"
       d="m 332.96206,1195.9178 32.90121,0 0,-2.4572 -32.90121,0 0,2.4572 z" />
    <path
       id="path1238"
       style="fill:#211d1d;fill-opacity:1;fill-rule:nonzero;stroke:none"
       d="m 332.96206,1203.2161 32.90121,0 0,-2.4605 -32.90121,0 0,2.4605 z" />
    <path
       id="path1240"
       style="fill:#211d1d;fill-opacity:1;fill-rule:nonzero;stroke:none"
       d="m 332.96206,1166.7267 32.90121,0 0,-2.4593 -32.90121,0 0,2.4593 z" />
    <path
       id="path1242"
       style="fill:#211d1d;fill-opacity:1;fill-rule:nonzero;stroke:none"
       d="m 339.23303,1159.4283 26.63024,0 0,-2.4605 -26.63024,0 0,2.4605 z" />
    <path
       id="path1244"
       style="fill:#211d1d;fill-opacity:1;fill-rule:nonzero;stroke:none"
       d="m 332.96206,1174.0256 32.90121,0 0,-2.4605 -32.90121,0 0,2.4605 z" />
    <path
       id="path1246"
       style="fill:#211d1d;fill-opacity:1;fill-rule:nonzero;stroke:none"
       d="m 425.56387,1215.3296 -48.88777,0 0,-1.6413 48.88777,0 0,1.6413 z m -48.88757,2.2141 48.88778,0 0,1.4597 -48.88778,0 0,-1.4597 z m -51.34545,0 48.88558,0 0,1.4597 -48.88558,0 0,-1.4597 z m 48.88558,-2.2141 -48.88558,0 0,-1.6413 48.88558,0 0,1.6413 z m -48.88558,-67.6424 48.88558,0 0,1.536 2.45987,0 0,-1.536 48.88757,0 0,63.5416 -48.88757,0 0,-1.5769 -2.45987,0 0,1.5769 -48.88558,0 0,-63.5416 z m -2.45724,-2.4596 0,67.2308 0,1.2299 0,7.7737 105.1497,0 0,-7.7737 0,-1.2299 0,-67.2308 -105.1497,0 z" />
    <g
       transform="translate(160.85715,-184.42857)"
       id="g7895">
      <g
         id="g1248"
         transform="matrix(0.21971045,0,0,-0.21971045,229.88003,1158.6732)">
        <path
           d="m 0,0 37.463,0 0,-14.476 97.024,0 0,14.476 37.463,0 0,-233.66 L 0,-233.66 0,0 Z m 48.658,13.461 74.634,0 0,-16.753 -74.634,0 0,16.753 z m -59.851,-258.32 194.318,0 0,256.054 -48.638,0 0,13.45 -97.024,0 0,-13.45 -48.656,0 0,-256.054 z"
           style="fill:#211d1d;fill-opacity:1;fill-rule:nonzero;stroke:none"
           id="path1250" />
      </g>
      <path
         d="m 233.16452,1176.5209 30.94468,0 0,-2.4566 -30.94468,0 0,2.4566 z"
         style="fill:#211d1d;fill-opacity:1;fill-rule:nonzero;stroke:none"
         id="path1252" />
      <path
         d="m 233.16452,1183.9045 30.94468,0 0,-2.4604 -30.94468,0 0,2.4604 z"
         style="fill:#211d1d;fill-opacity:1;fill-rule:nonzero;stroke:none"
         id="path1254" />
      <path
         d="m 233.16452,1169.136 30.94468,0 0,-2.4564 -30.94468,0 0,2.4564 z"
         style="fill:#211d1d;fill-opacity:1;fill-rule:nonzero;stroke:none"
         id="path1256" />
      <path
         d="m 233.16452,1198.6701 30.94468,0 0,-2.461 -30.94468,0 0,2.461 z"
         style="fill:#211d1d;fill-opacity:1;fill-rule:nonzero;stroke:none"
         id="path1258" />
      <path
         d="m 233.16452,1206.0545 25.04677,0 0,-2.4613 -25.04677,0 0,2.4613 z"
         style="fill:#211d1d;fill-opacity:1;fill-rule:nonzero;stroke:none"
         id="path1260" />
      <path
         d="m 233.16452,1191.2854 30.94468,0 0,-2.4565 -30.94468,0 0,2.4565 z"
         style="fill:#211d1d;fill-opacity:1;fill-rule:nonzero;stroke:none"
         id="path1262" />
      <path
         d="m 272.83961,1215.0928 -48.37584,0 0,-63.4959 48.37584,0 0,63.4959 z m -108.0503,-63.4959 48.59842,0 0,63.4959 -48.59842,0 0,-63.4959 z m 57.22183,63.4959 -6.17013,0 0,-63.4959 6.17013,0 0,63.4959 z m -59.67512,2.4573 112.96523,0 0,-68.4106 -112.96523,0 0,68.4106 z"
         style="fill:#211d1d;fill-opacity:1;fill-rule:nonzero;stroke:none"
         id="path1264" />
    </g>
    <g
       transform="translate(-7.8571424,94.285713)"
       id="g7878">
      <g
         id="g1102"
         transform="matrix(0.21836147,0,0,-0.21836147,882.16397,934.4113)">
        <path
           d="m 0,0 -71.506,0 -2.283,0 0,288.992 5.18,0 68.609,0 L 0,0 Z m -116.525,288.992 31.543,0 0,-288.992 -31.543,0 0,288.992 z m -84.971,0 73.774,0 0,-288.992 -73.774,0 0,288.992 z M -417.807,0 l 0,90.744 146.326,198.248 58.79,0 0,-288.992 -205.116,0 z m 349.198,300.182 -16.373,0 -31.543,0 -96.166,0 -64.436,0 -151.872,-205.762 0,-105.615 216.308,0 96.166,0 31.543,0 13.476,0 82.689,0 0,311.377 -79.792,0 z"
           style="fill:#211d1d;fill-opacity:1;fill-rule:nonzero;stroke:none"
           id="path1104" />
      </g>
      <path
         d="m 877.96311,920.33487 -7.63763,0 0,-2.79482 7.63763,0 0,2.79482 z m 2.44629,-5.24024 -12.5287,0 0,7.68234 12.5287,0 0,-7.68234 z"
         style="fill:#211d1d;fill-opacity:1;fill-rule:nonzero;stroke:none"
         id="path1106" />
      <path
         d="m 842.4383,917.54028 7.63764,0 0,2.79474 -7.63764,0 0,-2.79474 z m -2.44455,5.23669 12.52412,0 0,-7.68234 -12.52412,0 0,7.68234 z"
         style="fill:#211d1d;fill-opacity:1;fill-rule:nonzero;stroke:none"
         id="path1108" />
    </g>
    <g
       transform="matrix(0.21836147,0,0,-0.21836147,690.93166,1031.3358)"
       id="g1286">
      <path
         id="path1288"
         style="fill:#211d1d;fill-opacity:1;fill-rule:nonzero;stroke:none"
         d="m 0,0 -3.616,0 0,62.64 212.534,0 0,-62.64 L 0,0 Z m -140.376,0 -77.736,77.741 0,132.345 78.185,78.18 125.127,0 L -14.8,0 -140.376,0 Z m -77.736,61.919 61.92,-61.919 -61.92,0 0,61.919 z m 62.368,226.347 -62.368,-62.343 0,62.343 62.368,0 z m 155.744,0 125.683,0 0,-18.048 -111.281,0 0,-196.09 -18.018,0 0,214.138 3.616,0 z m 125.683,-55.407 -50.003,0 0,-11.178 50.003,0 0,-21.31 -83.831,0 0,-11.181 83.831,0 0,-21.307 -83.831,0 0,-11.187 83.831,0 0,-21.302 -83.831,0 0,-11.195 83.831,0 0,-21.296 -83.831,0 0,-11.183 83.831,0 0,-17.592 -100.094,0 0,184.9 100.094,0 0,-26.169 z m 83.235,-158.731 -71.884,0 0,214.138 71.884,0 0,-214.138 z M 0,299.47 l -14.8,0 -214.505,0 0,-310.654 214.505,0 14.8,0 220.103,0 0,310.654 -220.103,0 z" />
    </g>
    <g
       transform="translate(5,8.2857143)"
       id="g7906">
      <g
         id="g1072"
         transform="matrix(0.22941835,0,0,-0.22941835,121.94134,1025.1518)">
        <path
           d="m 0,0 -204.305,0 0,104.21 c 19.784,2.734 35.063,19.757 35.063,40.276 0,20.523 -15.279,37.549 -35.063,40.273 l 0,104.223 L 0,288.982 0,0 Z m -456.245,288.982 91.857,0 0,-288.982 -91.857,0 0,288.982 z M -261.349,0 l -91.845,0 0,288.982 91.845,0 0,-288.982 z m 51.446,173.955 c 16.257,0 29.487,-13.218 29.487,-29.469 0,-16.249 -13.23,-29.482 -29.487,-29.482 l -5.576,0 0,-115.004 -34.666,0 0,288.982 34.666,0 0,-115.027 5.576,0 z m -257.535,-185.163 478.641,0 0,311.371 -478.641,0 0,-311.371 z"
           style="fill:#211d1d;fill-opacity:1;fill-rule:nonzero;stroke:none"
           id="path1074" />
      </g>
      <g
         id="g1076"
         transform="matrix(0.22941835,0,0,-0.22941835,51.450882,1016.4181)">
        <path
           d="m 0,0 c -8.465,0 -15.328,6.865 -15.328,15.315 0,8.448 6.863,15.322 15.328,15.322 8.436,0 15.31,-6.874 15.31,-15.322 C 15.31,6.865 8.436,0 0,0 m 0,41.814 c -14.625,0 -26.514,-11.888 -26.514,-26.499 0,-14.613 11.889,-26.499 26.514,-26.499 14.598,0 26.494,11.886 26.494,26.499 0,14.611 -11.896,26.499 -26.494,26.499"
           style="fill:#211d1d;fill-opacity:1;fill-rule:nonzero;stroke:none"
           id="path1078" />
      </g>
      <path
         d="m 57.788406,980.82612 -12.677425,0 0,2.57045 12.677425,0 0,-2.57045 z"
         style="fill:#211d1d;fill-opacity:1;fill-rule:nonzero;stroke:none"
         id="path1080" />
      <path
         d="m 57.788406,988.53715 -12.677425,0 0,2.56626 12.677425,0 0,-2.56626 z"
         style="fill:#211d1d;fill-opacity:1;fill-rule:nonzero;stroke:none"
         id="path1082" />
      <path
         d="m 57.788406,973.12048 -12.677425,0 0,2.56488 12.677425,0 0,-2.56488 z"
         style="fill:#211d1d;fill-opacity:1;fill-rule:nonzero;stroke:none"
         id="path1084" />
      <path
         d="m 57.788406,965.40833 -12.677425,0 0,2.56442 12.677425,0 0,-2.56442 z"
         style="fill:#211d1d;fill-opacity:1;fill-rule:nonzero;stroke:none"
         id="path1086" />
      <g
         id="g1088"
         transform="matrix(0.22941835,0,0,-0.22941835,27.809369,1016.4181)">
        <path
           d="m 0,0 c -8.463,0 -15.328,6.865 -15.328,15.315 0,8.448 6.865,15.322 15.328,15.322 8.436,0 15.31,-6.874 15.31,-15.322 C 15.31,6.865 8.436,0 0,0 m 0,41.814 c -14.616,0 -26.512,-11.888 -26.512,-26.499 0,-14.613 11.896,-26.499 26.512,-26.499 14.598,0 26.493,11.886 26.493,26.499 0,14.611 -11.895,26.499 -26.493,26.499"
           style="fill:#211d1d;fill-opacity:1;fill-rule:nonzero;stroke:none"
           id="path1090" />
      </g>
      <path
         d="m 21.469419,983.39657 12.68018,0 0,-2.57045 -12.68018,0 0,2.57045 z"
         style="fill:#211d1d;fill-opacity:1;fill-rule:nonzero;stroke:none"
         id="path1092" />
      <path
         d="m 21.469419,991.10341 12.68018,0 0,-2.56626 -12.68018,0 0,2.56626 z"
         style="fill:#211d1d;fill-opacity:1;fill-rule:nonzero;stroke:none"
         id="path1094" />
      <path
         d="m 21.469419,975.68513 12.68018,0 0,-2.56489 -12.68018,0 0,2.56489 z"
         style="fill:#211d1d;fill-opacity:1;fill-rule:nonzero;stroke:none"
         id="path1096" />
      <path
         d="m 21.469419,967.97275 12.68018,0 0,-2.56442 -12.68018,0 0,2.56442 z"
         style="fill:#211d1d;fill-opacity:1;fill-rule:nonzero;stroke:none"
         id="path1098" />
    </g>
    <g
       transform="translate(0,2)"
       id="g7981">
      <g
         id="g1178"
         transform="matrix(0.22941835,0,0,-0.22941835,279.18471,1029.8681)">
        <path
           d="m 0,0 -213.226,0 0,16.519 189.289,0 0,248.501 -189.289,0 0,23.971 L 0,288.991 0,0 Z m -213.226,253.824 178.093,0 0,-226.122 -178.093,0 0,226.122 z m -11.174,11.196 -189.553,0 0,-248.501 189.553,0 0,-16.519 -213.492,0 0,288.991 213.492,0 0,-23.971 z m 0,-237.317 -178.367,0 0,226.122 178.367,0 0,-226.122 z m 11.174,272.469 0,11.94 -11.174,0 0,-11.94 -224.686,0 0,-311.371 224.686,0 0,-11.932 11.174,0 0,11.932 224.41,0 0,311.371 -224.41,0 z"
           style="fill:#211d1d;fill-opacity:1;fill-rule:nonzero;stroke:none"
           id="path1180" />
      </g>
      <path
         d="m 235.17493,984.61672 31.31698,0 0,-2.56718 -31.31698,0 0,2.56718 z"
         style="fill:#211d1d;fill-opacity:1;fill-rule:nonzero;stroke:none"
         id="path1182" />
      <path
         d="m 235.17493,992.08982 31.31698,0 0,-2.56925 -31.31698,0 0,2.56925 z"
         style="fill:#211d1d;fill-opacity:1;fill-rule:nonzero;stroke:none"
         id="path1184" />
      <path
         d="m 235.17493,977.14454 31.31698,0 0,-2.5681 -31.31698,0 0,2.5681 z"
         style="fill:#211d1d;fill-opacity:1;fill-rule:nonzero;stroke:none"
         id="path1186" />
      <path
         d="m 235.17493,1007.0309 31.31698,0 0,-2.5672 -31.31698,0 0,2.5672 z"
         style="fill:#211d1d;fill-opacity:1;fill-rule:nonzero;stroke:none"
         id="path1188" />
      <path
         d="m 235.17493,1014.5024 25.34613,0 0,-2.5659 -25.34613,0 0,2.5659 z"
         style="fill:#211d1d;fill-opacity:1;fill-rule:nonzero;stroke:none"
         id="path1190" />
      <path
         d="m 235.17493,999.55926 31.31698,0 0,-2.56702 -31.31698,0 0,2.56702 z"
         style="fill:#211d1d;fill-opacity:1;fill-rule:nonzero;stroke:none"
         id="path1192" />
      <path
         d="m 222.46815,1004.4637 -31.31928,0 0,2.5684 31.31928,0 0,-2.5684 z"
         style="fill:#211d1d;fill-opacity:1;fill-rule:nonzero;stroke:none"
         id="path1194" />
      <path
         d="m 222.46815,996.992 -31.31928,0 0,2.56697 31.31928,0 0,-2.56697 z"
         style="fill:#211d1d;fill-opacity:1;fill-rule:nonzero;stroke:none"
         id="path1196" />
      <path
         d="m 222.46815,1011.9368 -31.31928,0 0,2.5659 31.31928,0 0,-2.5659 z"
         style="fill:#211d1d;fill-opacity:1;fill-rule:nonzero;stroke:none"
         id="path1198" />
      <path
         d="m 222.46815,982.04954 -31.31928,0 0,2.56718 31.31928,0 0,-2.56718 z"
         style="fill:#211d1d;fill-opacity:1;fill-rule:nonzero;stroke:none"
         id="path1200" />
      <path
         d="m 222.46815,974.57644 -25.35051,0 0,2.5681 25.35051,0 0,-2.5681 z"
         style="fill:#211d1d;fill-opacity:1;fill-rule:nonzero;stroke:none"
         id="path1202" />
      <path
         d="m 222.46815,989.52033 -31.31928,0 0,2.56925 31.31928,0 0,-2.56925 z"
         style="fill:#211d1d;fill-opacity:1;fill-rule:nonzero;stroke:none"
         id="path1204" />
    </g>
    <path
       id="path1052"
       style="fill:#211d1d;fill-opacity:1;fill-rule:nonzero;stroke:none"
       d="m 1010.8383,1174.2267 -13.87528,0 0,-55.0897 13.87528,0 0,55.0897 z m -49.06459,2.1401 c -0.52362,7.2205 -6.30957,13.005 -13.52841,13.5295 l 0,-13.5295 13.52841,0 z m 0.74568,-2.1401 -14.27409,0 0,-55.0897 14.27409,0 0,55.0897 z m -4.99213,-66.5088 c 2.51011,2.5089 3.99668,5.7718 4.24645,9.2789 l -13.52841,0 0,-13.5288 c 3.50709,0.2515 6.76994,1.7367 9.28196,4.2499 m 7.13132,11.4191 14.27388,0 0,55.0897 -14.27388,0 0,-55.0897 z m 30.16698,2.1821 -4.7909,0 0,12.9049 c -3.30375,1.3569 -5.47084,4.5468 -5.47084,8.1789 l 0,31.8238 -3.49408,0 0,-55.0897 13.75582,0 0,2.1821 z m -8.12275,45.148 4.83581,0 0,-17.3596 -4.83581,0 0,-6.7046 c 0,-2.9556 1.89515,-5.5305 4.71618,-6.4057 l 0.75294,-0.2337 0,-12.3079 2.65363,0 0,50.7711 -8.12275,0 0,-7.7596 z m 0,-15.2202 2.69854,0 0,13.0831 -2.69854,0 0,-13.0831 z m 26.27269,-34.2501 -49.06051,0 c -0.25512,-4.0783 -1.96221,-7.8777 -4.8767,-10.7932 -3.1715,-3.1677 -7.38107,-4.9138 -11.86258,-4.9119 l -1.06978,0 0,17.8453 0,55.0897 0,17.8479 1.06978,0 c 8.8902,0 16.18777,-6.9552 16.73928,-15.7078 l 49.06051,0 0,-59.37 z" />
    <g
       transform="translate(-20,162.85714)"
       id="g7884">
      <g
         id="g1266"
         transform="matrix(0.24071942,0,0,-0.24071942,848.75826,970.61124)">
        <path
           d="m 0,0 7.958,0 0,-15.005 95.785,0 0,15.005 7.965,0 0,-231.87 L 0,-231.87 0,0 Z m 19.151,12.512 73.406,0 0,-16.333 -73.406,0 0,16.333 z m -30.344,-255.566 134.087,0 0,254.249 -19.151,0 0,12.51 -95.785,0 0,-12.51 -19.151,0 0,-254.249 z"
           style="fill:#211d1d;fill-opacity:1;fill-rule:nonzero;stroke:none"
           id="path1268" />
      </g>
      <path
         d="m 851.42957,990.08184 20.95415,0 0,-2.6922 -20.95415,0 0,2.6922 z"
         style="fill:#211d1d;fill-opacity:1;fill-rule:nonzero;stroke:none"
         id="path1270" />
      <path
         d="m 851.42957,998.05324 20.95415,0 0,-2.6922 -20.95415,0 0,2.6922 z"
         style="fill:#211d1d;fill-opacity:1;fill-rule:nonzero;stroke:none"
         id="path1272" />
      <path
         d="m 851.42957,982.11064 20.95415,0 0,-2.6927 -20.95415,0 0,2.6927 z"
         style="fill:#211d1d;fill-opacity:1;fill-rule:nonzero;stroke:none"
         id="path1274" />
      <path
         d="m 851.42957,1013.998 20.95415,0 0,-2.6943 -20.95415,0 0,2.6943 z"
         style="fill:#211d1d;fill-opacity:1;fill-rule:nonzero;stroke:none"
         id="path1276" />
      <path
         d="m 851.42957,1021.9697 16.95917,0 0,-2.6927 -16.95917,0 0,2.6927 z"
         style="fill:#211d1d;fill-opacity:1;fill-rule:nonzero;stroke:none"
         id="path1278" />
      <path
         d="m 851.42957,1006.0266 20.95415,0 0,-2.6922 -20.95415,0 0,2.6922 z"
         style="fill:#211d1d;fill-opacity:1;fill-rule:nonzero;stroke:none"
         id="path1280" />
      <path
         d="m 880.83634,1031.4451 -37.08234,0 0,-68.81256 37.08234,0 0,68.81256 z m -86.26228,-68.81226 37.17359,0 0,68.81246 -37.17359,0 0,-68.81246 z m 46.48773,68.81226 -6.61689,0 0,-68.81256 6.61689,0 0,68.81256 z m -49.18499,2.6975 91.64959,0 0,-74.20466 -91.64959,0 0,74.20466 z"
         style="fill:#211d1d;fill-opacity:1;fill-rule:nonzero;stroke:none"
         id="path1282" />
    </g>
    <g
       transform="translate(6.4285714,0.2857143)"
       id="g7922">
      <path
         d="m 400.37256,938.43674 -54.61645,0 0,-71.36172 54.61645,0 0,71.36172 z m -57.37774,2.76369 60.14143,0 0,-76.89389 -60.14143,0 0,76.89389 z"
         style="fill:#231f20;fill-opacity:1;fill-rule:nonzero;stroke:none"
         id="path196" />
      <g
         id="g198"
         transform="matrix(2.3990357,0,0,-2.3990357,394.54483,932.72512)">
        <path
           d="m 0,0 -17.699,0 0,24.052 3.857,0 0,-1.491 9.987,0 0,1.491 3.855,0 L 0,0 Z m -12.69,25.437 7.683,0 0,-1.725 -7.683,0 0,1.725 z m 13.842,-0.234 -5.007,0 0,1.385 -9.987,0 0,-1.385 -5.009,0 0,-26.355 20.003,0 0,26.355 z"
           style="fill:#231f20;fill-opacity:1;fill-rule:nonzero;stroke:none"
           id="path200" />
      </g>
      <path
         d="m 355.77449,895.08616 34.78362,0 0,-2.76129 -34.78362,0 0,2.76129 z"
         style="fill:#231f20;fill-opacity:1;fill-rule:nonzero;stroke:none"
         id="path202" />
      <path
         d="m 355.77449,903.38203 34.78362,0 0,-2.75889 -34.78362,0 0,2.75889 z"
         style="fill:#231f20;fill-opacity:1;fill-rule:nonzero;stroke:none"
         id="path204" />
      <path
         d="m 355.77449,886.7879 34.78362,0 0,-2.76129 -34.78362,0 0,2.76129 z"
         style="fill:#231f20;fill-opacity:1;fill-rule:nonzero;stroke:none"
         id="path206" />
      <path
         d="m 355.77449,919.97615 34.78362,0 0,-2.75888 -34.78362,0 0,2.75888 z"
         style="fill:#231f20;fill-opacity:1;fill-rule:nonzero;stroke:none"
         id="path208" />
      <path
         d="m 355.77449,928.27922 28.15268,0 0,-2.75649 -28.15268,0 0,2.75649 z"
         style="fill:#231f20;fill-opacity:1;fill-rule:nonzero;stroke:none"
         id="path210" />
      <path
         d="m 355.77449,911.6779 34.78362,0 0,-2.7565 -34.78362,0 0,2.7565 z"
         style="fill:#231f20;fill-opacity:1;fill-rule:nonzero;stroke:none"
         id="path212" />
    </g>
    <g
       transform="matrix(2.3990357,0,0,-2.3990357,280.26545,873.01489)"
       id="g218">
      <path
         id="path220"
         style="fill:#231f20;fill-opacity:1;fill-rule:nonzero;stroke:none"
         d="m 0,0 -4.057,0 -15.366,0 0,-23.037 0,-2.543 0,-2.25 -1.486,0 -0.375,0 0,29.746 0.375,0 21.555,0 L 0.646,0 0,0 Z m -5.999,-2.914 -8,0 0,-1.152 7.23,0 -1.466,-2.202 -8.443,0 0,-1.151 7.673,0 -1.468,-2.2 -6.205,0 0,-1.152 5.437,0 -1.467,-2.202 -3.97,0 0,-1.15 3.2,0 -1.467,-2.201 -1.733,0 0,-1.152 0.964,0 -2.557,-3.835 0,20.159 13.447,0 -1.175,-1.762 z m 6.645,-24.916 -18.917,0 0,3.402 0,1.043 14.831,22.233 2.288,0 1.798,0 0,-26.678 z m -44.062,29.746 20.979,0 0,-29.746 -20.979,0 0,29.746 z m 22.507,1.152 -1.528,0 -22.13,0 0,-32.05 22.13,0 1.528,0 1.486,0 21.221,0 0,28.982 0,3.068 -22.707,0 z" />
    </g>
    <g
       id="g7933">
      <path
         d="m 578.75722,934.34317 -15.69932,0 0,-62.97047 15.69932,0 0,62.97047 z m -103.57605,-62.97069 46.42212,0 0,62.97046 -46.42212,0 0,-62.97046 z m 85.40052,1.25191 -28.24659,0 0,-1.25191 28.24659,0 0,1.25191 z m -28.24659,60.47101 28.24659,0 0,1.24777 -28.24659,0 0,-1.24777 z m -2.44455,1.24777 -5.84925,0 0,-62.97047 5.84925,0 0,62.97047 z m 30.69114,-56.97077 -24.30735,0 0,53.27758 -3.93924,0 0,-55.5856 28.24659,0 0,2.30802 z m 0,6.10499 -10.92725,0 0,2.44429 10.92725,0 0,4.65268 -18.31355,0 0,2.44278 18.31355,0 0,4.65614 -18.31355,0 0,2.44346 18.31355,0 0,4.65328 -18.31355,0 0,2.44218 18.31355,0 0,4.65456 -18.31355,0 0,2.44436 18.31355,0 0,4.65351 -18.31355,0 0,2.44127 18.31355,0 0,4.65351 -18.31355,0 0,2.44323 18.31355,0 0,2.14734 -21.86737,0 0,-50.83412 21.86737,0 0,3.66153 z m -87.84486,53.3112 108.46451,0 0,-67.85739 -108.46451,0 0,67.85739 z"
         style="fill:#211d1d;fill-opacity:1;fill-rule:nonzero;stroke:none"
         id="path1284" />
      <path
         d="m 482.34517,922.06625 13.73448,0 0,6.65492 -13.73448,0 0,-6.65492 z m 16.49577,-2.7637 -19.26186,0 0,9.42341 -1.34826,0 0,2.76369 1.34826,0 19.26186,0 1.34825,0 0,-2.76369 -1.34825,0 0,-9.42341 z"
         style="fill:#231f20;fill-opacity:1;fill-rule:nonzero;stroke:none"
         id="path222" />
    </g>
    <g
       transform="translate(0,-2)"
       id="g7941">
      <g
         id="g742"
         transform="matrix(2.3990357,0,0,-2.3990357,57.909458,899.73986)">
        <path
           d="m 0,0 -2.73,0.762 0,-0.911 L 0,-0.913 0,0 Z"
           style="fill:#1b181a;fill-opacity:1;fill-rule:nonzero;stroke:none"
           id="path744" />
      </g>
      <g
         id="g746"
         transform="matrix(2.3990357,0,0,-2.3990357,57.909458,895.31194)">
        <path
           d="m 0,0 -2.73,0.763 0,-0.912 L 0,-0.912 0,0 Z"
           style="fill:#1b181a;fill-opacity:1;fill-rule:nonzero;stroke:none"
           id="path748" />
      </g>
      <g
         id="g750"
         transform="matrix(2.3990357,0,0,-2.3990357,57.909458,890.93082)">
        <path
           d="m 0,0 -2.73,0.764 0,-0.913 L 0,-0.912 0,0 Z"
           style="fill:#1b181a;fill-opacity:1;fill-rule:nonzero;stroke:none"
           id="path752" />
      </g>
      <g
         id="g754"
         transform="matrix(2.3990357,0,0,-2.3990357,57.909458,886.56628)">
        <path
           d="m 0,0 -2.73,0.764 0,-0.912 L 0,-0.912 0,0 Z"
           style="fill:#1b181a;fill-opacity:1;fill-rule:nonzero;stroke:none"
           id="path756" />
      </g>
      <path
         d="m 109.98125,942.73153 -12.580541,0 0,-69.73517 12.580541,0 0,69.73517 z m -59.546457,-71.02105 0,-2.2431 8.847643,3.30348 0,69.33692 -8.847643,-4.75488 0,-65.64242 z m 11.414611,1.28349 32.984343,0 0,69.73756 -32.984343,-0.002 0,-69.73517 z m 38.437356,-4.67332 0,2.10635 -39.94395,0 -5.644931,-2.10635 45.588881,0 z m 2.56696,0.61174 3.28428,1.49461 -3.28428,0 0,-1.49461 z m -0.78928,-3.17872 -54.196615,0 0,0.0134 0,5.94241 0,67.17779 11.920808,6.40782 52.759597,0.002 0,-74.8715 -10.48379,-4.67333 z"
         style="fill:#1b181a;fill-opacity:1;fill-rule:nonzero;stroke:none"
         id="path758" />
      <g
         transform="matrix(2.3990357,0,0,-2.3990357,-95.604102,1482.0636)"
         id="g760">
        <g
           id="g762"
           clip-path="url(#clipPath764)">
          <g
             id="g768"
             transform="translate(62.731,232.374)">
            <path
               d="m 0,0 c -0.308,0 -0.568,0.351 -0.568,0.766 0,0.414 0.26,0.763 0.568,0.763 0.308,0 0.567,-0.349 0.567,-0.763 C 0.567,0.351 0.308,0 0,0 m 0,2.319 c -0.749,0 -1.357,-0.697 -1.357,-1.553 0,-0.858 0.608,-1.556 1.357,-1.556 0.748,0 1.356,0.698 1.356,1.556 0,0.856 -0.608,1.553 -1.356,1.553"
               style="fill:#1b181a;fill-opacity:1;fill-rule:nonzero;stroke:none"
               id="path770" />
          </g>
          <g
             id="g772"
             transform="translate(49.731,234.292)">
            <path
               d="m 0,0 0,1.026 c 0.113,0.222 0.344,0.375 0.614,0.375 0.244,0 0.458,-0.125 0.58,-0.313 L 1.194,0 0,0 Z m 1.194,15.788 0,-0.874 c -0.18,0.07 -0.375,0.112 -0.58,0.112 -0.218,0 -0.425,-0.044 -0.614,-0.122 l 0,0.884 1.194,0 z M 0,5.267 c 0.113,0.22 0.344,0.374 0.614,0.374 0.244,0 0.458,-0.125 0.58,-0.313 l 0,-3.133 C 1.014,2.266 0.819,2.308 0.614,2.308 0.396,2.308 0.189,2.264 0,2.186 l 0,3.081 z m 1.194,4.3 0,-3.132 C 1.014,6.505 0.819,6.547 0.614,6.547 0.396,6.547 0.189,6.503 0,6.425 l 0,3.081 c 0.113,0.221 0.344,0.374 0.614,0.374 0.244,0 0.458,-0.125 0.58,-0.313 m -0.58,1.219 C 0.396,10.786 0.189,10.742 0,10.664 l 0,3.082 c 0.113,0.221 0.344,0.374 0.614,0.374 0.244,0 0.458,-0.125 0.58,-0.312 l 0,-3.133 c -0.18,0.069 -0.375,0.111 -0.58,0.111 M -1.07,-1.07 l 3.334,0 0,17.93 -3.334,0 0,-17.93 z"
               style="fill:#1b181a;fill-opacity:1;fill-rule:nonzero;stroke:none"
               id="path774" />
          </g>
        </g>
      </g>
    </g>
    <path
       id="path290"
       style="fill:#231f20;fill-opacity:1;fill-rule:nonzero;stroke:none"
       d="m 559.54197,1036.7513 -18.40032,0 0,-73.04882 18.40032,0 0,73.04882 z m -67.08148,-73.04882 3.01802,0 0,73.04882 -3.01802,0 0,-73.04882 z m 24.77769,73.04882 -18.92828,0 0,-73.04882 18.92828,0 0,73.04882 z m 21.07454,-70.14868 -6.35526,0 0,17.11351 c -4.376,1.79505 -7.24914,6.0286 -7.24914,10.83933 l 0,42.19584 -4.64121,0 0,-73.04882 18.24561,0 0,2.90014 z m -10.77547,59.85688 6.40929,0 0,-23.012 -6.40929,0 0,-8.89204 c 0,-3.91933 2.51215,-7.33505 6.25459,-8.49419 l 0.997,-0.31187 0,-16.31794 3.52388,0 0,67.31984 -10.77547,0 0,-10.2918 z m 0,-20.1832 3.58036,0 0,17.3494 -3.58036,0 0,-17.3494 z m -37.90814,33.3063 72.74179,0 0,-78.70662 -72.74179,0 0,78.70662 z" />
    <path
       id="path238"
       style="fill:#231f20;fill-opacity:1;fill-rule:nonzero;stroke:none"
       d="m 845.34699,938.66903 -41.26634,0 0,-57.06763 41.26634,0 0,57.06763 z m -20.632,-70.78789 c 2.46815,0 4.76268,0.75077 6.67009,2.03411 -2.21476,2.40245 -3.63652,5.52751 -3.86175,8.98573 l -14.73849,0 c 0.49269,-6.15628 5.65187,-11.01984 11.93015,-11.01984 m 8.71828,3.79137 c 1.80888,1.92618 2.98664,4.43891 3.20718,7.22847 l -6.41671,0 c 0.22523,-2.78956 1.403,-5.30229 3.20953,-7.22847 m 20.65077,7.22847 -6.03429,0 -0.95723,0 -7.74697,0 c -0.22523,-3.45822 -1.64699,-6.58328 -3.86175,-8.98573 1.90741,-1.28334 4.20194,-2.03411 6.67009,-2.03411 6.28063,0 11.43746,4.86356 11.93015,11.01984 m 1.56018,56.44122 4.78145,3.15321 -9.62389,0 4.84244,-3.15321 z m 7.23551,2.2781 -5.88647,-4.6524 0,-30.26058 -2.70276,0 0,30.26058 -6.24075,4.95505 0,-56.32155 14.82998,0 0,56.0189 z m -6.09293,-58.71932 c -0.49973,-7.64843 -6.86013,-13.7226 -14.63291,-13.7226 -3.26818,0 -6.28063,1.08627 -8.72062,2.89749 -2.43999,-1.81122 -5.4501,-2.89749 -8.71828,-2.89749 -7.77043,0 -14.13318,6.07417 -14.63056,13.7226 l -8.70654,0 0,62.47315 45.71463,0 0.95723,0 17.53274,0 0,-62.47315 -8.79569,0 z" />
    <g
       transform="matrix(2.3461451,0,0,-2.3461451,647.16902,938.0332)"
       id="g264">
      <path
         id="path266"
         style="fill:#231f20;fill-opacity:1;fill-rule:nonzero;stroke:none"
         d="m 0,0 0,13.405 15.949,0 0,-2.676 3.964,0 0,2.676 15.784,0 L 35.697,0 0,0 Z m 18.761,11.881 -1.659,0 0,3.462 1.659,0 0,-3.462 z m 16.936,12.927 0,-10.25 -15.784,0 0,1.936 -3.964,0 0,-1.936 -15.949,0 0,10.25 35.697,0 z m -17.766,5.364 c 2.481,0 4.534,-1.831 4.893,-4.212 l -9.786,0 c 0.361,2.381 2.414,4.212 4.893,4.212 m 6.058,-4.212 c -0.368,3.019 -2.942,5.364 -6.058,5.364 -3.116,0 -5.689,-2.345 -6.057,-5.364 l -13.026,0 0,-27.112 38.001,0 0,27.112 -12.86,0 z" />
    </g>
    <path
       id="path292"
       style="fill:#231f20;fill-opacity:1;fill-rule:nonzero;stroke:none"
       d="m 380.3596,574.62614 -10.29355,0 0,2.44509 10.29355,0 0,-2.44509 z" />
    <path
       id="path294"
       style="fill:#231f20;fill-opacity:1;fill-rule:nonzero;stroke:none"
       d="m 370.06605,584.16262 25.11677,0 0,-2.44297 -25.11677,0 0,2.44297 z" />
    <path
       id="path296"
       style="fill:#231f20;fill-opacity:1;fill-rule:nonzero;stroke:none"
       d="m 380.3596,567.53686 -10.29355,0 0,2.44085 10.29355,0 0,-2.44085 z" />
    <path
       id="path298"
       style="fill:#231f20;fill-opacity:1;fill-rule:nonzero;stroke:none"
       d="m 370.06605,562.89056 25.11677,0 0,-2.44085 -25.11677,0 0,2.44085 z" />
    <path
       id="path300"
       style="fill:#231f20;fill-opacity:1;fill-rule:nonzero;stroke:none"
       d="m 370.06605,598.34541 25.11677,0 0,-2.4366 -25.11677,0 0,2.4366 z" />
    <path
       id="path302"
       style="fill:#231f20;fill-opacity:1;fill-rule:nonzero;stroke:none"
       d="m 370.06605,605.43469 20.3305,0 0,-2.44085 -20.3305,0 0,2.44085 z" />
    <path
       id="path304"
       style="fill:#231f20;fill-opacity:1;fill-rule:nonzero;stroke:none"
       d="m 370.06605,591.25402 25.11677,0 0,-2.43873 -25.11677,0 0,2.43873 z" />
    <path
       id="path306"
       style="fill:#231f20;fill-opacity:1;fill-rule:nonzero;stroke:none"
       d="m 392.48961,577.07123 -6.59092,0 0,-9.49832 6.59092,0 0,9.49832 z m -9.03601,2.44933 11.47898,0 0,-14.38213 -11.47898,0 0,14.38213 z" />
    <g
       transform="matrix(2.1206325,0,0,-2.1206325,406.6883,622.47482)"
       id="g308">
      <path
         id="path310"
         style="fill:#231f20;fill-opacity:1;fill-rule:nonzero;stroke:none"
         d="m 0,0 -16.453,0 0,1.894 14.456,0 0,27.897 1.997,0 L 0,0 Z m -19.602,32.836 16.453,0 0,-29.791 -16.453,0 0,29.791 z m 17.605,-1.893 0,3.044 -18.757,0 0,-32.093 3.149,0 0,-3.045 18.757,0 0,32.094 -3.149,0 z" />
    </g>
    <g
       transform="matrix(2.1206325,0,0,-2.1206325,265.32354,619.19864)"
       id="g312">
      <path
         id="path314"
         style="fill:#231f20;fill-opacity:1;fill-rule:nonzero;stroke:none"
         d="m 0,0 -21.948,0 0,1.7 19.484,0 0,25.581 -19.484,0 0,2.465 L 0,29.746 0,0 Z m -21.948,26.129 18.331,0 0,-23.276 -18.331,0 0,23.276 z m -1.151,1.152 -19.51,0 0,-25.581 19.51,0 0,-1.7 -21.974,0 0,29.746 21.974,0 0,-2.465 z m 0,-24.428 -18.358,0 0,23.276 18.358,0 0,-23.276 z m 1.151,28.045 0,1.229 -1.151,0 0,-1.229 -23.126,0 0,-32.048 23.126,0 0,-1.231 1.151,0 0,1.231 23.099,0 0,32.048 -23.099,0 z" />
    </g>
    <path
       id="path316"
       style="fill:#231f20;fill-opacity:1;fill-rule:nonzero;stroke:none"
       d="m 223.44763,579.9468 29.79913,0 0,-2.4366 -29.79913,0 0,2.4366 z" />
    <path
       id="path318"
       style="fill:#231f20;fill-opacity:1;fill-rule:nonzero;stroke:none"
       d="m 223.44763,587.05729 29.79913,0 0,-2.44509 -29.79913,0 0,2.44509 z" />
    <path
       id="path320"
       style="fill:#231f20;fill-opacity:1;fill-rule:nonzero;stroke:none"
       d="m 223.44763,572.83844 29.79913,0 0,-2.44084 -29.79913,0 0,2.44084 z" />
    <path
       id="path322"
       style="fill:#231f20;fill-opacity:1;fill-rule:nonzero;stroke:none"
       d="m 223.44763,601.27401 29.79913,0 0,-2.44085 -29.79913,0 0,2.44085 z" />
    <path
       id="path324"
       style="fill:#231f20;fill-opacity:1;fill-rule:nonzero;stroke:none"
       d="m 223.44763,608.38449 24.12008,0 0,-2.44085 -24.12008,0 0,2.44085 z" />
    <path
       id="path326"
       style="fill:#231f20;fill-opacity:1;fill-rule:nonzero;stroke:none"
       d="m 223.44763,594.16565 29.79913,0 0,-2.44085 -29.79913,0 0,2.44085 z" />
    <path
       id="path328"
       style="fill:#231f20;fill-opacity:1;fill-rule:nonzero;stroke:none"
       d="m 211.36003,598.83316 -29.79913,0 0,2.44085 29.79913,0 0,-2.44085 z" />
    <path
       id="path330"
       style="fill:#231f20;fill-opacity:1;fill-rule:nonzero;stroke:none"
       d="m 211.36003,591.72056 -29.79913,0 0,2.44084 29.79913,0 0,-2.44084 z" />
    <path
       id="path332"
       style="fill:#231f20;fill-opacity:1;fill-rule:nonzero;stroke:none"
       d="m 211.36003,605.94364 -29.79913,0 0,2.44085 29.79913,0 0,-2.44085 z" />
    <path
       id="path334"
       style="fill:#231f20;fill-opacity:1;fill-rule:nonzero;stroke:none"
       d="m 211.36003,577.50596 -29.79913,0 0,2.4366 29.79913,0 0,-2.4366 z" />
    <path
       id="path336"
       style="fill:#231f20;fill-opacity:1;fill-rule:nonzero;stroke:none"
       d="m 211.36003,570.3976 -24.11795,0 0,2.44084 24.11795,0 0,-2.44084 z" />
    <path
       id="path338"
       style="fill:#231f20;fill-opacity:1;fill-rule:nonzero;stroke:none"
       d="m 211.36003,584.6122 -29.79913,0 0,2.44509 29.79913,0 0,-2.44509 z" />
  </g>
</svg>
